<svg width="7" height="9" viewBox="0 0 7 9" fill="none" xmlns="http://www.w3.org/2000/svg">
<path d="M0.0509589 8.84668V7.70463L3.08079 4.73446C3.37056 4.44185 3.61204 4.18191 3.80522 3.95463C3.9984 3.72736 4.14329 3.50719 4.23988 3.29412C4.33647 3.08105 4.38477 2.85378 4.38477 2.6123C4.38477 2.33674 4.32227 2.10094 4.19727 1.90492C4.07227 1.70605 3.90039 1.55265 3.68164 1.44469C3.46289 1.33674 3.21431 1.28276 2.9359 1.28276C2.64897 1.28276 2.39755 1.34242 2.18164 1.46174C1.96573 1.57821 1.79812 1.74441 1.6788 1.96032C1.56232 2.17623 1.50408 2.43333 1.50408 2.73162H-0.000177532C-0.000177532 2.17765 0.126243 1.69611 0.379084 1.28702C0.631925 0.877929 0.979936 0.561168 1.42312 0.336736C1.86914 0.112304 2.3805 8.84533e-05 2.95721 8.84533e-05C3.54244 8.84533e-05 4.05664 0.109463 4.49982 0.328213C4.943 0.546963 5.28675 0.846679 5.53107 1.22736C5.77823 1.60804 5.90181 2.0427 5.90181 2.53134C5.90181 2.85804 5.83931 3.17907 5.71431 3.49441C5.58931 3.80975 5.36914 4.15918 5.0538 4.5427C4.7413 4.92623 4.30238 5.39071 3.73704 5.93617L2.23278 7.466V7.52566H6.03391V8.84668H0.0509589Z" fill="white"/>
</svg>
