<svg width="16" height="16" viewBox="0 0 16 16" fill="none" xmlns="http://www.w3.org/2000/svg">
<path fill-rule="evenodd" clip-rule="evenodd" d="M8.00065 13.3333C10.9462 13.3333 13.334 10.9455 13.334 7.99992C13.334 5.0544 10.9462 2.66659 8.00065 2.66659C5.05513 2.66659 2.66732 5.0544 2.66732 7.99992C2.66732 10.9455 5.05513 13.3333 8.00065 13.3333ZM8.00065 14.6666C11.6825 14.6666 14.6673 11.6818 14.6673 7.99992C14.6673 4.31802 11.6825 1.33325 8.00065 1.33325C4.31875 1.33325 1.33398 4.31802 1.33398 7.99992C1.33398 11.6818 4.31875 14.6666 8.00065 14.6666Z" fill="#7B7F95"/>
<path d="M8.00065 6.66675C8.00065 6.29856 8.29912 6.00008 8.66732 6.00008H9.33398C9.70218 6.00008 10.0007 5.70161 10.0007 5.33341C10.0007 4.96523 9.70218 4.66675 9.33398 4.66675H8.66732C7.56272 4.66675 6.66732 5.56218 6.66732 6.66675V8.00008H6.00065C5.63246 8.00008 5.33398 8.29855 5.33398 8.66675C5.33398 9.03495 5.63246 9.33342 6.00065 9.33342H6.66732V13.3334C6.66732 13.7016 6.96578 14.0001 7.33398 14.0001C7.70218 14.0001 8.00065 13.7016 8.00065 13.3334V9.33342H9.33398C9.70218 9.33342 10.0007 9.03495 10.0007 8.66675C10.0007 8.29855 9.70218 8.00008 9.33398 8.00008H8.00065V6.66675Z" fill="#7B7F95"/>
</svg>
