<svg width="17" height="18" viewBox="0 0 17 18" fill="none" xmlns="http://www.w3.org/2000/svg">
<path d="M11.879 0C12.376 0 12.779 0.402948 12.779 0.9V1.8C11.279 1.8 9.95898 1.8 8.45898 1.8V0.9C8.45898 0.402948 8.86193 0 9.35898 0H11.879Z" fill="#0F766D"/>
<path fill-rule="evenodd" clip-rule="evenodd" d="M13.68 3.42002C13.68 2.92297 13.277 2.52002 12.78 2.52002H6.50216C6.02679 2.52002 5.57073 2.70805 5.23352 3.04308L0.53136 7.71469C0.19125 8.05259 0 8.5122 0 8.99163V16.2C0 17.1942 0.805896 18 1.8 18H8.87292C7.33313 17.0923 6.3 15.4168 6.3 13.5C6.3 10.6171 8.63706 8.28002 11.52 8.28002C12.2904 8.28002 13.0218 8.4469 13.68 8.74647V3.42002ZM8.29667 4.78184C8.84997 5.33515 8.84997 6.23221 8.29667 6.7855L4.44548 10.6367C3.89219 11.19 2.99513 11.19 2.44183 10.6367C1.88854 10.0834 1.88854 9.18634 2.44183 8.63303L6.29301 4.78184C6.84632 4.22854 7.74338 4.22856 8.29667 4.78184Z" fill="#0F766D"/>
<path fill-rule="evenodd" clip-rule="evenodd" d="M11.5195 18C14.0048 18 16.0195 15.9853 16.0195 13.5C16.0195 11.0147 14.0048 9 11.5195 9C9.03425 9 7.01953 11.0147 7.01953 13.5C7.01953 15.9853 9.03425 18 11.5195 18ZM13.3195 14.0279C13.3195 15.0287 12.5137 15.84 11.5195 15.84C10.5254 15.84 9.71953 15.0287 9.71953 14.0279C9.71953 13.2544 10.7948 11.8647 11.2832 11.2734C11.4081 11.1222 11.631 11.1222 11.7559 11.2734C12.2443 11.8647 13.3195 13.2544 13.3195 14.0279Z" fill="#0F766D"/>
</svg>
