<svg width="106" height="31" viewBox="0 0 106 31" fill="none" xmlns="http://www.w3.org/2000/svg">
<path fill-rule="evenodd" clip-rule="evenodd" d="M1.87437 11.653V17.5675C1.87437 17.5675 -0.00107574 18.9268 0 21.9751C0 26.5453 3.12216 28.2064 3.12216 28.2064L3.85754 28.3447C3.88985 25.0836 4.71657 21.0607 9.2983 17.6668C13.56 14.51 23.0467 15.5331 34.8519 16.8062C46.2274 18.033 59.7558 19.492 72.8363 17.6668C94.0561 14.7059 100.196 24.3902 101.206 30.8314C102.586 30.5333 103.726 30.1734 104.495 29.739C105.938 27.3919 106.129 24.0215 105.938 23.3172C105.919 23.247 105.899 23.1704 105.877 23.0866C105.676 22.3302 105.32 20.9898 104.388 18.4912C103.354 15.717 83.9214 11.6691 81.9582 11.6263C78.8053 10.2945 74.6076 8.38108 70.792 6.64189C66.54 4.70381 62.7626 2.98202 61.4344 2.52228C47.3777 -2.34682 32.7361 1.14199 28.236 2.2143C27.9681 2.27811 27.7363 2.33336 27.5425 2.37779C25.4082 2.86742 20.7797 4.66831 16.9515 6.15777C14.5956 7.0744 12.5429 7.87308 11.5611 8.17563C9.76387 8.72897 5.76343 9.39577 3.50668 9.74897C2.56628 9.89561 1.87437 10.7015 1.87437 11.653ZM66.9782 12.505L49.1717 11.9602L46.885 2.60255C46.885 2.60255 61.1516 2.81982 68.2303 9.24058C68.2303 9.24058 66.6505 9.83888 66.9782 12.505ZM45.4144 11.6905L29.1877 11.1457L28.3705 8.20773L30.7664 4.34394C30.7664 4.34394 35.5573 2.49445 43.9438 2.60362L45.4144 11.6905ZM24.5607 11.0901H20.0397C19.8426 10.0037 20.3782 8.91521 21.3593 8.40574C22.9755 7.56555 25.6896 6.23624 29.0806 4.88765L24.5607 11.0901Z" fill="url(#paint0_linear_10328_11839)"/>
<path d="M105.579 1.5365L101.24 0.0340696C101.111 -0.0113565 100.971 -0.0113565 100.842 0.0340696L96.5027 1.5365C96.2506 1.62314 96.082 1.86373 96.082 2.13377V5.51381C96.082 9.63917 100.606 11.6447 100.799 11.7279C100.954 11.7944 101.128 11.7944 101.283 11.7279C101.476 11.6447 106 9.63917 106 5.51381V2.13377C106 1.86373 105.832 1.62314 105.579 1.5365ZM103.757 4.72642L101.484 7.67071C101.195 8.04674 100.653 8.10142 100.297 7.79016L98.8508 6.52833C98.5037 6.22633 98.4632 5.69467 98.7616 5.3422C99.0583 4.98973 99.5807 4.94935 99.9261 5.25135L100.718 5.94199L102.458 3.68835C102.74 3.32326 103.259 3.25848 103.618 3.54702C103.977 3.8322 104.04 4.36133 103.757 4.72642Z" fill="#027371"/>
<defs>
<linearGradient id="paint0_linear_10328_11839" x1="35.6433" y1="-3.58002e-06" x2="106" y2="23.5557" gradientUnits="userSpaceOnUse">
<stop stop-color="#027371"/>
<stop offset="1" stop-color="#A2CDC8"/>
</linearGradient>
</defs>
</svg>
