<svg width="16" height="16" viewBox="0 0 16 16" fill="none" xmlns="http://www.w3.org/2000/svg">
<path fill-rule="evenodd" clip-rule="evenodd" d="M10.6673 2.66659H5.33398C3.86122 2.66659 2.66732 3.86049 2.66732 5.33325V10.6666C2.66732 12.1393 3.86122 13.3333 5.33398 13.3333H10.6673C12.1401 13.3333 13.334 12.1393 13.334 10.6666V5.33325C13.334 3.86049 12.1401 2.66659 10.6673 2.66659ZM5.33398 1.33325C3.12484 1.33325 1.33398 3.12411 1.33398 5.33325V10.6666C1.33398 12.8757 3.12484 14.6666 5.33398 14.6666H10.6673C12.8765 14.6666 14.6673 12.8757 14.6673 10.6666V5.33325C14.6673 3.12411 12.8765 1.33325 10.6673 1.33325H5.33398Z" fill="#7B7F95"/>
<path d="M11.3327 5.33333C11.7009 5.33333 11.9993 5.03485 11.9993 4.66667C11.9993 4.29848 11.7009 4 11.3327 4C10.9645 4 10.666 4.29848 10.666 4.66667C10.666 5.03485 10.9645 5.33333 11.3327 5.33333Z" fill="#7B7F95"/>
<path fill-rule="evenodd" clip-rule="evenodd" d="M11.3327 8.00008C11.3327 9.84101 9.84028 11.3334 7.99935 11.3334C6.1584 11.3334 4.66602 9.84101 4.66602 8.00008C4.66602 6.15913 6.1584 4.66675 7.99935 4.66675C9.84028 4.66675 11.3327 6.15913 11.3327 8.00008ZM9.99935 8.00008C9.99935 9.10468 9.10395 10.0001 7.99935 10.0001C6.89475 10.0001 5.99935 9.10468 5.99935 8.00008C5.99935 6.89548 6.89475 6.00008 7.99935 6.00008C9.10395 6.00008 9.99935 6.89548 9.99935 8.00008Z" fill="#7B7F95"/>
</svg>
