<svg width="16" height="16" viewBox="0 0 16 16" fill="none" xmlns="http://www.w3.org/2000/svg">
<path fill-rule="evenodd" clip-rule="evenodd" d="M12.0007 2.66659H4.00065C3.26427 2.66659 2.66732 3.26354 2.66732 3.99992V11.9999C2.66732 12.7363 3.26427 13.3333 4.00065 13.3333H12.0007C12.7371 13.3333 13.334 12.7363 13.334 11.9999V3.99992C13.334 3.26354 12.7371 2.66659 12.0007 2.66659ZM4.00065 1.33325C2.52789 1.33325 1.33398 2.52716 1.33398 3.99992V11.9999C1.33398 13.4727 2.52789 14.6666 4.00065 14.6666H12.0007C13.4734 14.6666 14.6673 13.4727 14.6673 11.9999V3.99992C14.6673 2.52716 13.4734 1.33325 12.0007 1.33325H4.00065Z" fill="#7B7F95"/>
<path d="M4.66667 5.33333C5.03485 5.33333 5.33333 5.03485 5.33333 4.66667C5.33333 4.29848 5.03485 4 4.66667 4C4.29848 4 4 4.29848 4 4.66667C4 5.03485 4.29848 5.33333 4.66667 5.33333Z" fill="#7B7F95"/>
<path d="M4.66667 6.66675C4.29848 6.66675 4 6.96521 4 7.33341V11.3334C4 11.7016 4.29848 12.0001 4.66667 12.0001C5.03485 12.0001 5.33333 11.7016 5.33333 11.3334V7.33341C5.33333 6.96521 5.03485 6.66675 4.66667 6.66675Z" fill="#7B7F95"/>
<path d="M9.33268 8.00008C8.59628 8.00008 7.99935 8.59701 7.99935 9.33341V11.3334C7.99935 11.7016 7.70088 12.0001 7.33268 12.0001C6.96448 12.0001 6.66602 11.7016 6.66602 11.3334V7.33341C6.66602 6.96521 6.96448 6.66675 7.33268 6.66675C7.60295 6.66675 7.83562 6.82755 7.94028 7.05868C8.34555 6.81008 8.82242 6.66675 9.33268 6.66675C10.8054 6.66675 11.9993 7.86068 11.9993 9.33341V11.3334C11.9993 11.7016 11.7009 12.0001 11.3327 12.0001C10.9645 12.0001 10.666 11.7016 10.666 11.3334V9.33341C10.666 8.59701 10.0691 8.00008 9.33268 8.00008Z" fill="#7B7F95"/>
</svg>
