<svg width="16" height="16" viewBox="0 0 16 16" fill="none" xmlns="http://www.w3.org/2000/svg">
<path fill-rule="evenodd" clip-rule="evenodd" d="M2.12131 9.3332C1.01883 9.33633 0.307156 10.5923 0.986354 11.5438C1.95903 12.9064 3.72287 14 6.66755 14C11.2309 14 14.894 10.2811 14.3812 5.8874L15.1325 4.38487C15.6535 3.34285 14.7481 2.15748 13.6057 2.38596L12.6132 2.58446C12.3501 2.44562 12.0777 2.34085 11.845 2.26494C11.3914 2.11701 10.8424 2 10.3342 2C9.42135 2 8.63348 2.23421 8.00735 2.70395C7.38835 3.16843 7.03968 3.77883 6.84835 4.33937C6.76015 4.59774 6.70142 4.85689 6.66373 5.10562C6.30955 4.99415 5.94841 4.84417 5.59485 4.66103C4.79271 4.24555 4.14408 3.71881 3.77818 3.25701C3.16429 2.4822 1.86333 2.53965 1.40681 3.54681C0.763387 4.96631 0.939887 6.64897 1.51825 8.0086C1.7121 8.46427 1.96427 8.91473 2.27234 9.3322C2.2196 9.3328 2.16915 9.33307 2.12131 9.3332ZM6.66748 12.6667C4.09192 12.6667 2.76014 11.7338 2.07151 10.7691C2.04057 10.7258 2.07177 10.6667 2.12501 10.6665C2.82557 10.6645 4.26357 10.6314 5.21197 10.0763C5.26102 10.0476 5.25023 9.97527 5.19636 9.9572C2.98558 9.21387 1.72889 6.06573 2.62115 4.09727C2.64161 4.05213 2.70227 4.04618 2.73305 4.08503C3.7523 5.37145 5.98083 6.63147 7.91975 6.66594C7.96181 6.66667 7.99361 6.62847 7.98721 6.58689C7.90908 6.08035 7.61075 3.33333 10.3341 3.33333C10.9845 3.33333 11.9521 3.65055 12.3085 3.97553C12.3249 3.99055 12.3473 3.99737 12.3691 3.993L13.8671 3.6934C13.9215 3.68252 13.9647 3.73897 13.9399 3.78859L13.0107 5.64679C13.0043 5.65969 13.0023 5.6745 13.0047 5.68871C13.6555 9.34667 10.6595 12.6667 6.66748 12.6667Z" fill="#7B7F95"/>
</svg>
