<svg width="20" height="20" viewBox="0 0 20 20" fill="none" xmlns="http://www.w3.org/2000/svg">
<path d="M15.9986 2V5.052C15.9986 5.7884 15.4016 6.3854 14.6652 6.3854C13.9288 6.3854 13.332 5.7884 13.332 5.052V2C12.1562 2.515 11.332 3.6862 11.332 5.052C11.332 6.1386 11.8606 7.095 12.6652 7.7038V16C12.6652 17.1042 13.561 18 14.6652 18C15.7694 18 16.6652 17.1042 16.6652 16V7.7038C17.4706 7.095 17.9986 6.1386 17.9986 5.052C17.9986 3.6856 17.175 2.515 15.9986 2Z" fill="#F0FDFC"/>
<path d="M11.3334 11.3333V8.6665H4C2.8958 8.6665 2 9.5617 2 10.6659L2.0006 10.6665H2V15.3333H3.3334V17.3333C3.3334 17.7005 3.6334 17.9999 4 17.9999H5.3334C5.6998 17.9999 6 17.7005 6 17.3333V15.3333H11.3334V12.6665H6.6666V11.3333H11.3334ZM4.6666 12.8333C4.207 12.8333 3.8334 12.4603 3.8334 11.9999C3.8334 11.5389 4.207 11.1665 4.6666 11.1665C5.1264 11.1665 5.5 11.5389 5.5 11.9999C5.5 12.4603 5.1264 12.8333 4.6666 12.8333Z" fill="#F0FDFC"/>
<path d="M9.9998 5.05205C9.9998 4.45045 10.1262 3.87245 10.341 3.33325H6.2094C5.6574 3.33325 5.1574 3.55725 4.7954 3.91925C4.6118 4.10345 4.4634 4.32345 4.3626 4.56765L3.2168 7.33325H10.6042C10.214 6.64645 9.9998 5.86785 9.9998 5.05205Z" fill="#F0FDFC"/>
</svg>
