<svg width="15" height="12" viewBox="0 0 15 12" fill="none" xmlns="http://www.w3.org/2000/svg">
<path fill-rule="evenodd" clip-rule="evenodd" d="M1.40061 7.3332C0.298131 7.33633 -0.413547 8.59227 0.265651 9.5438C1.23833 10.9064 3.00216 12 5.94684 12C10.5102 12 14.1733 8.28113 13.6605 3.8874L14.4118 2.38487C14.9328 1.34285 14.0274 0.15748 12.885 0.38596L11.8925 0.58446C11.6294 0.44562 11.357 0.340847 11.1243 0.26494C10.6707 0.117013 10.1217 0 9.61351 0C8.70064 0 7.91278 0.234207 7.28664 0.703953C6.66764 1.16843 6.31898 1.77883 6.12765 2.33937C6.03945 2.59774 5.98071 2.85689 5.94303 3.10562C5.58885 2.99415 5.2277 2.84417 4.87414 2.66103C4.07201 2.24555 3.42338 1.71881 3.05748 1.25701C2.44359 0.4822 1.14263 0.539647 0.686111 1.54681C0.0426843 2.96631 0.219184 4.64897 0.797544 6.0086C0.991398 6.46427 1.24356 6.91473 1.55164 7.3322C1.4989 7.3328 1.44844 7.33307 1.40061 7.3332ZM5.94678 10.6667C3.37122 10.6667 2.03944 9.7338 1.3508 8.76913C1.31986 8.7258 1.35106 8.66667 1.40431 8.66653C2.10487 8.66453 3.54287 8.6314 4.49127 8.07633C4.54032 8.0476 4.52952 7.97527 4.47566 7.9572C2.26488 7.21387 1.00819 4.06573 1.90044 2.09727C1.9209 2.05213 1.98157 2.04618 2.01235 2.08503C3.0316 3.37145 5.26013 4.63147 7.19904 4.66594C7.24111 4.66667 7.27291 4.62847 7.26651 4.58689C7.18838 4.08035 6.89004 1.33333 9.61344 1.33333C10.2638 1.33333 11.2314 1.65055 11.5878 1.97553C11.6042 1.99055 11.6266 1.99737 11.6484 1.993L13.1464 1.6934C13.2008 1.68252 13.244 1.73897 13.2192 1.78859L12.29 3.64679C12.2836 3.65969 12.2816 3.6745 12.284 3.68871C12.9348 7.34667 9.93878 10.6667 5.94678 10.6667Z" fill="#7B7F95"/>
</svg>
