<svg width="117" height="117" viewBox="0 0 117 117" fill="none" xmlns="http://www.w3.org/2000/svg">
<g id="Group 1000005535">
<path id="Vector" fill-rule="evenodd" clip-rule="evenodd" d="M104.601 77.3622C108.103 75.5103 111.033 72.7386 113.077 69.3453C115.121 65.952 116.202 62.0656 116.202 58.1042C116.202 54.1428 115.121 50.2564 113.077 46.8632C111.033 43.4699 108.103 40.6982 104.601 38.8463C105.768 35.0607 105.881 31.0286 104.927 27.1836C103.974 23.3387 101.99 19.8265 99.1893 17.025C96.3885 14.2235 92.8769 12.2387 89.0322 11.2842C85.1875 10.3296 81.1553 10.4415 77.3695 11.6077C75.5182 8.10399 72.7463 5.1716 69.3523 3.12624C65.9582 1.08087 62.0706 0 58.1079 0C54.1452 0 50.2575 1.08087 46.8634 3.12624C43.4694 5.1716 40.6975 8.10399 38.8463 11.6077C35.0607 10.4405 31.0286 10.3275 27.1836 11.281C23.3387 12.2346 19.8265 14.2184 17.025 17.0192C14.2235 19.82 12.2387 23.3316 11.2842 27.1763C10.3296 31.021 10.4415 35.0532 11.6077 38.839C8.10399 40.6903 5.1716 43.4621 3.12624 46.8562C1.08087 50.2502 0 54.1379 0 58.1006C0 62.0633 1.08087 65.951 3.12624 69.345C5.1716 72.7391 8.10399 75.511 11.6077 77.3622C10.4405 81.1478 10.3275 85.1799 11.281 89.0249C12.2346 92.8698 14.2184 96.382 17.0192 99.1835C19.82 101.985 23.3316 103.97 27.1763 104.924C31.021 105.879 35.0532 105.767 38.839 104.601C40.6903 108.104 43.4621 111.037 46.8562 113.082C50.2502 115.128 54.1379 116.208 58.1006 116.208C62.0633 116.208 65.951 115.128 69.345 113.082C72.7391 111.037 75.511 108.104 77.3622 104.601C81.1478 105.768 85.1799 105.881 89.0249 104.927C92.8698 103.974 96.382 101.99 99.1835 99.1893C101.985 96.3885 103.97 92.8769 104.924 89.0322C105.879 85.1875 105.767 81.1481 104.601 77.3622ZM86.1125 44.9751C86.5336 44.3963 86.8365 43.7402 87.0039 43.0443C87.1714 42.3484 87.2001 41.6263 87.0885 40.9193C86.9769 40.2123 86.7272 39.5342 86.3535 38.9237C85.9798 38.3132 85.4896 37.7823 84.9107 37.3612C84.3319 36.9402 83.6758 36.6373 82.9799 36.4699C82.284 36.3024 81.5619 36.2737 80.8549 36.3853C80.1479 36.4969 79.4698 36.7466 78.8593 37.1203C78.2488 37.494 77.7179 37.9842 77.2969 38.5631L52.0044 73.3465L38.3525 59.6945C37.8498 59.1746 37.2487 58.76 36.5841 58.4749C35.9195 58.1898 35.2047 58.0399 34.4816 58.0339C33.7584 58.028 33.0413 58.1661 32.3721 58.4403C31.703 58.7144 31.0951 59.1191 30.5839 59.6307C30.0728 60.1423 29.6687 60.7506 29.3952 61.4201C29.1217 62.0895 28.9842 62.8067 28.9908 63.5299C28.9974 64.253 29.148 64.9676 29.4338 65.6319C29.7195 66.2963 30.1347 66.897 30.6551 67.3992L48.8093 85.5534C49.3657 86.1102 50.0362 86.5397 50.7746 86.8124C51.513 87.0851 52.3018 87.1945 53.0865 87.1331C53.8712 87.0716 54.6334 86.8408 55.3203 86.4566C56.0073 86.0723 56.6028 85.5437 57.0658 84.9071L86.1125 44.9679V44.9751Z" fill="#49B530"/>
</g>
</svg>
