<svg width="40" height="40" viewBox="0 0 40 40" fill="none" xmlns="http://www.w3.org/2000/svg">
<g id="fi_12560586">
<g id="Group">
<path id="Vector" d="M27.5115 14.7197C30.6096 14.7197 33.1299 12.1991 33.1299 9.10125C33.1299 6.00344 30.6096 3.48242 27.5115 3.48242C24.4137 3.48242 21.8931 6.00344 21.8931 9.10125C21.8931 12.1991 24.4136 14.7197 27.5115 14.7197ZM22.8476 9.14109C22.8476 8.09438 23.5661 7.03172 24.9392 7.03172H25.3907V6.51922C25.3907 5.1457 26.4533 4.42719 27.5002 4.42719C28.5467 4.42719 29.6095 5.1457 29.6095 6.51922V7.03172H30.1035C30.7291 7.03172 31.2816 7.26336 31.6602 7.69867C31.9927 8.08078 32.176 8.58016 32.1756 9.12078C32.1756 10.1681 31.4642 11.2505 30.1035 11.2505H29.6095V11.6831C29.6095 13.0567 28.5467 13.7749 27.5002 13.7749C26.4533 13.7749 25.3907 13.0567 25.3907 11.6831V11.2505H24.9393C23.5662 11.2505 22.8476 10.188 22.8476 9.14109Z" fill="url(#paint0_linear_6468_1150)"/>
<path id="Vector_2" d="M25.9603 10.157C26.2615 10.157 26.4845 10.3613 26.4845 10.6626V11.6834C26.4845 12.4217 27.0316 12.6838 27.5002 12.6841C27.9688 12.6841 28.5158 12.4218 28.5158 11.6834V10.6626C28.5158 10.3614 28.7811 10.157 29.0826 10.157H30.1035C30.8274 10.157 31.0844 9.59914 31.0844 9.13023C31.0844 8.85711 30.9941 8.58594 30.8369 8.405C30.6635 8.20617 30.4173 8.12578 30.1035 8.12578H29.0826C28.7811 8.12578 28.5158 7.84164 28.5158 7.54023V6.51953C28.5158 5.78109 27.9688 5.51953 27.5002 5.51953C27.0316 5.51953 26.4845 5.78109 26.4845 6.51953V7.54016C26.4845 7.84156 26.2616 8.1257 25.9603 8.1257H24.9394C24.2012 8.1257 23.9395 8.67289 23.9395 9.14109C23.9395 9.6093 24.2011 10.157 24.9394 10.157H25.9603Z" fill="url(#paint1_linear_6468_1150)"/>
<path id="Vector_3" d="M35.6302 17.8943C34.8581 17.563 34.0606 17.3906 33.2777 17.3906C31.1562 17.3906 29.2763 18.6227 27.9843 20.8601C27.8868 21.0284 27.7067 21.1325 27.5117 21.1325C27.3167 21.1325 27.137 21.0284 27.039 20.8601C25.7477 18.6227 23.8677 17.3906 21.7463 17.3906C20.9635 17.3906 20.1659 17.563 19.3757 17.9027C16.925 19.0634 15.8018 21.5786 16.3122 24.7959C17.0962 30.1679 22.0031 34.1713 26.3335 36.1293C26.917 36.393 27.2414 36.5187 27.5059 36.5187C27.7723 36.5187 28.0843 36.398 28.6837 36.1264C33.0181 34.1665 37.9276 30.1627 38.7107 24.8025C39.2222 21.5785 38.0993 19.0634 35.6302 17.8943ZM34.1949 25.0379L26.0226 31.5122C25.7331 31.7708 25.3294 31.9239 24.9098 31.9239C24.4471 31.9239 24.0131 31.7425 23.6894 31.4124L20.6709 28.3489C20.3502 28.0227 20.1756 27.5913 20.1795 27.1342C20.1832 26.6767 20.3648 26.2485 20.691 25.9277C21.0127 25.611 21.439 25.4363 21.8911 25.4363C22.3538 25.4363 22.7871 25.618 23.1117 25.948L25.052 27.9176L32.0739 22.355C32.3747 22.1168 32.7513 21.9859 33.1336 21.9859C33.6613 21.9859 34.1508 22.2231 34.4767 22.6365C35.0611 23.3759 34.9345 24.4534 34.1949 25.0379Z" fill="url(#paint2_linear_6468_1150)"/>
<path id="Vector_4" d="M15.2533 21.7197C13.0772 21.4338 10.9602 21.9938 9.47313 22.4902C9.22594 22.9378 8.94805 23.3797 8.64032 23.8056C8.53383 23.9537 8.36703 24.0322 8.19735 24.0322C8.08672 24.0322 7.97516 23.9988 7.87875 23.9293C7.6343 23.7533 7.57891 23.4118 7.75531 23.1675C8.07805 22.7199 8.36782 22.2552 8.61594 21.7856C8.61641 21.7845 8.61703 21.7832 8.61805 21.782C9.70313 19.731 10.357 17.1987 10.9334 14.9645C11.1518 14.1199 11.3581 13.3214 11.5703 12.6192C11.5749 12.604 11.5815 12.5907 11.5873 12.5763C11.6005 11.8327 11.9692 11.2539 12.6368 10.9744C14.1529 10.3401 14.7138 11.6021 14.9537 12.1413C15.0765 12.4166 14.9527 12.739 14.6773 12.8613C14.4012 12.984 14.0792 12.8607 13.9568 12.585C13.6184 11.8254 13.5026 11.795 13.0582 11.9813C12.933 12.0335 12.552 12.1936 12.7158 12.9563C12.719 12.9705 12.7208 12.9848 12.7228 12.9992C12.7241 13.0027 12.7254 13.0062 12.7266 13.01C12.9327 13.5513 13.1291 13.9319 13.3216 14.1593C13.7963 14.7024 14.7595 14.4508 15.4395 14.0684C16.4645 13.4912 17.3619 12.3798 17.0886 11.5188L16.4569 9.38227C16.2219 8.65672 15.6759 8.24828 14.8388 8.18024C13.4968 8.15102 12.0569 8.15289 10.8389 8.5125C6.44657 11.8363 2.14446 19.1598 1.22586 24.8952C1.05133 25.9845 1.25352 26.4727 2.12703 27.0713C6.90547 30.0073 11.7027 30.9377 17.1562 29.9686C16.1473 28.3895 15.4866 26.6987 15.2328 24.9606C15.0495 23.8048 15.0612 22.7145 15.2533 21.7197Z" fill="url(#paint3_linear_6468_1150)"/>
<path id="Vector_5" d="M32.7508 23.2105L25.3459 29.0763C25.1283 29.2498 24.8138 29.2305 24.6184 29.0316L22.3338 26.713C22.2159 26.5928 22.0591 26.5271 21.8911 26.5271C21.7274 26.5271 21.5727 26.5903 21.4564 26.7052C21.338 26.8216 21.272 26.9769 21.271 27.1424C21.2694 27.3082 21.3327 27.4641 21.4488 27.5824L24.467 30.6462C24.6919 30.8746 25.0831 30.8876 25.321 30.6761L33.5176 24.1819C33.7859 23.9696 33.8315 23.5799 33.6204 23.3124C33.4158 23.0531 33.0116 23.0036 32.7508 23.2105Z" fill="url(#paint4_linear_6468_1150)"/>
</g>
</g>
<defs>
<linearGradient id="paint0_linear_6468_1150" x1="27.5115" y1="2.3587" x2="27.5115" y2="15.8434" gradientUnits="userSpaceOnUse">
<stop stop-color="#1D95D2"/>
<stop offset="1" stop-color="#47B43A"/>
</linearGradient>
<linearGradient id="paint1_linear_6468_1150" x1="27.5119" y1="4.80307" x2="27.5119" y2="13.4006" gradientUnits="userSpaceOnUse">
<stop stop-color="#1D95D2"/>
<stop offset="1" stop-color="#47B43A"/>
</linearGradient>
<linearGradient id="paint2_linear_6468_1150" x1="27.5117" y1="15.4778" x2="27.5117" y2="38.4316" gradientUnits="userSpaceOnUse">
<stop stop-color="#1D95D2"/>
<stop offset="1" stop-color="#47B43A"/>
</linearGradient>
<linearGradient id="paint3_linear_6468_1150" x1="9.16232" y1="5.95207" x2="9.16232" y2="32.5545" gradientUnits="userSpaceOnUse">
<stop stop-color="#1D95D2"/>
<stop offset="1" stop-color="#47B43A"/>
</linearGradient>
<linearGradient id="paint4_linear_6468_1150" x1="27.512" y1="22.3076" x2="27.512" y2="31.601" gradientUnits="userSpaceOnUse">
<stop stop-color="#1D95D2"/>
<stop offset="1" stop-color="#47B43A"/>
</linearGradient>
</defs>
</svg>
