<svg width="40" height="40" viewBox="0 0 40 40" fill="none" xmlns="http://www.w3.org/2000/svg">
<g clip-path="url(#clip0_6468_1177)">
<path d="M20 17.2656C22.3693 17.2656 24.2969 15.338 24.2969 12.9688V9.84375C24.2969 7.47445 22.3693 5.54688 20 5.54688C17.6307 5.54688 15.7031 7.47445 15.7031 9.84375V12.9688C15.7031 15.338 17.6307 17.2656 20 17.2656Z" fill="url(#paint0_linear_6468_1177)"/>
<path d="M24.6937 17.6621C23.4913 18.8648 21.831 19.6097 20 19.6097C18.169 19.6097 16.5087 18.8648 15.3062 17.6621C12.1741 19.3427 10.0391 22.6493 10.0391 26.4456V33.2816C10.0391 33.9288 10.5637 34.4534 11.2109 34.4534H28.7891C29.4363 34.4534 29.9609 33.9288 29.9609 33.2816V26.4456C29.9609 22.6493 27.8259 19.3427 24.6937 17.6621ZM22.3438 26.8753H21.1719V28.0472C21.1719 28.6944 20.6472 29.2191 20 29.2191C19.3528 29.2191 18.8281 28.6944 18.8281 28.0472V26.8753H17.6562C17.0091 26.8753 16.4844 26.3506 16.4844 25.7034C16.4844 25.0563 17.0091 24.5316 17.6562 24.5316H18.8281V23.3597C18.8281 22.7125 19.3528 22.1878 20 22.1878C20.6472 22.1878 21.1719 22.7125 21.1719 23.3597V24.5316H22.3438C22.9909 24.5316 23.5156 25.0563 23.5156 25.7034C23.5156 26.3506 22.9909 26.8753 22.3438 26.8753Z" fill="url(#paint1_linear_6468_1177)"/>
<path d="M31.7969 18.0469C33.7354 18.0469 35.3125 16.4698 35.3125 14.5312V12.3438C35.3125 10.4052 33.7354 8.82812 31.7969 8.82812C29.8584 8.82812 28.2812 10.4052 28.2812 12.3438V14.5312C28.2812 16.4698 29.8584 18.0469 31.7969 18.0469Z" fill="url(#paint2_linear_6468_1177)"/>
<path d="M8.20312 18.0469C10.1416 18.0469 11.7188 16.4698 11.7188 14.5312V12.3438C11.7188 10.4052 10.1416 8.82812 8.20312 8.82812C6.26461 8.82812 4.6875 10.4052 4.6875 12.3438V14.5312C4.6875 16.4698 6.26461 18.0469 8.20312 18.0469Z" fill="url(#paint3_linear_6468_1177)"/>
<path d="M36.1089 18.4932C35.0373 19.6585 33.5011 20.3904 31.7969 20.3904C31.402 20.3904 31.0168 20.3494 30.6436 20.2746C31.7126 22.1161 32.3047 24.2348 32.3047 26.445V31.7185H38.8282C39.4754 31.7185 40 31.1938 40 30.5466V25.4685C40 22.5261 38.4425 19.941 36.1089 18.4932Z" fill="url(#paint4_linear_6468_1177)"/>
<path d="M3.89109 18.4932C1.5575 19.941 0 22.5261 0 25.4685V30.5466C0 31.1938 0.524687 31.7185 1.17188 31.7185H7.69531V26.445C7.69531 24.2348 8.28742 22.1161 9.35648 20.2746C8.98328 20.3494 8.59805 20.3904 8.20312 20.3904C6.49891 20.3904 4.96273 19.6585 3.89109 18.4932Z" fill="url(#paint5_linear_6468_1177)"/>
</g>
<defs>
<linearGradient id="paint0_linear_6468_1177" x1="20" y1="4.375" x2="20" y2="18.4375" gradientUnits="userSpaceOnUse">
<stop stop-color="#1D95D2"/>
<stop offset="1" stop-color="#47B43A"/>
</linearGradient>
<linearGradient id="paint1_linear_6468_1177" x1="20" y1="15.983" x2="20" y2="36.1326" gradientUnits="userSpaceOnUse">
<stop stop-color="#1D95D2"/>
<stop offset="1" stop-color="#47B43A"/>
</linearGradient>
<linearGradient id="paint2_linear_6468_1177" x1="31.7969" y1="7.90625" x2="31.7969" y2="18.9688" gradientUnits="userSpaceOnUse">
<stop stop-color="#1D95D2"/>
<stop offset="1" stop-color="#47B43A"/>
</linearGradient>
<linearGradient id="paint3_linear_6468_1177" x1="8.20313" y1="7.90625" x2="8.20313" y2="18.9688" gradientUnits="userSpaceOnUse">
<stop stop-color="#1D95D2"/>
<stop offset="1" stop-color="#47B43A"/>
</linearGradient>
<linearGradient id="paint4_linear_6468_1177" x1="35.3218" y1="17.1706" x2="35.3218" y2="33.041" gradientUnits="userSpaceOnUse">
<stop stop-color="#1D95D2"/>
<stop offset="1" stop-color="#47B43A"/>
</linearGradient>
<linearGradient id="paint5_linear_6468_1177" x1="4.67824" y1="17.1706" x2="4.67824" y2="33.041" gradientUnits="userSpaceOnUse">
<stop stop-color="#1D95D2"/>
<stop offset="1" stop-color="#47B43A"/>
</linearGradient>
<clipPath id="clip0_6468_1177">
<rect width="40" height="40" fill="white"/>
</clipPath>
</defs>
</svg>
