<svg width="40" height="40" viewBox="0 0 40 40" fill="none" xmlns="http://www.w3.org/2000/svg">
<path d="M27.5 18.9803C25.4321 18.9803 23.75 20.6625 23.75 22.7303C23.75 24.3578 24.7981 25.7323 26.25 26.2499V32.5C26.25 33.8788 25.1288 35 23.75 35H13.75C12.3712 35 11.25 33.8788 11.25 32.5V29.8554C13.4803 29.3855 15.3011 27.6987 15.8722 25.415L17.4628 19.0533C17.4872 18.9539 17.5 18.8519 17.5 18.75C17.5 16.6821 15.8179 15 13.75 15H12.5C11.8097 15 11.25 15.5597 11.25 16.25C11.25 16.9403 11.8097 17.5 12.5 17.5H13.75C14.3964 17.5 14.9292 17.9926 14.9933 18.6218L13.4467 24.8083C13.0505 26.3934 11.6333 27.5 10 27.5C8.3667 27.5 6.94946 26.3934 6.55334 24.8083L5.00671 18.6218C5.0708 17.9926 5.60364 17.5 6.25 17.5H7.5C8.19031 17.5 8.75 16.9403 8.75 16.25C8.75 15.5597 8.19031 15 7.5 15H6.25C4.18213 15 2.5 16.6821 2.5 18.75C2.5 18.8519 2.51282 18.9539 2.53723 19.0533L4.12781 25.415C4.69887 27.6987 6.5197 29.3855 8.75 29.8554V32.5C8.75 35.257 10.993 37.5 13.75 37.5H23.75C26.507 37.5 28.75 35.257 28.75 32.5V26.25C30.2019 25.7323 31.25 24.3578 31.25 22.7303C31.25 20.6625 29.5679 18.9803 27.5 18.9803Z" fill="url(#paint0_linear_6468_1202)"/>
<path d="M10 2.5C7.24289 2.5 5 4.74281 5 7.5C5 10.2572 7.24289 12.5 10 12.5C12.7572 12.5 15 10.2572 15 7.5C15 4.74281 12.7572 2.5 10 2.5ZM13.125 8.125H10.625V10.625C10.625 10.9705 10.3455 11.25 10 11.25C9.65454 11.25 9.375 10.9705 9.375 10.625V8.125H6.875C6.52954 8.125 6.25 7.84546 6.25 7.5C6.25 7.15454 6.52954 6.875 6.875 6.875H9.375V4.375C9.375 4.02954 9.65454 3.75 10 3.75C10.3455 3.75 10.625 4.02954 10.625 4.375V6.875H13.125C13.4705 6.875 13.75 7.15454 13.75 7.5C13.75 7.84546 13.4705 8.125 13.125 8.125Z" fill="url(#paint1_linear_6468_1202)"/>
<path d="M33.75 11.2915L28.4851 13.5474C28.1732 13.6817 27.8412 13.75 27.5 13.75C27.1588 13.75 26.8268 13.6817 26.5137 13.5468L21.25 11.291V13.75C21.25 14.2237 21.5173 14.6564 21.9409 14.8682L26.9409 17.3682C27.1167 17.4561 27.3083 17.5 27.5 17.5C27.6917 17.5 27.8833 17.4561 28.0591 17.3682L33.0591 14.8682C33.4827 14.6564 33.75 14.2237 33.75 13.75V11.2915Z" fill="url(#paint2_linear_6468_1202)"/>
<path d="M36.7426 6.35162L27.9926 2.60162C27.6776 2.46613 27.3224 2.46613 27.0074 2.60162L18.2574 6.35162C17.7979 6.54816 17.5 7.00043 17.5 7.50031C17.5 8.00018 17.7979 8.45245 18.2574 8.64899L27.0074 12.399C27.1649 12.4667 27.3322 12.5003 27.5 12.5003C27.6678 12.5003 27.8351 12.4667 27.9926 12.399L35 9.39583V16.2503C35 16.9406 35.5597 17.5003 36.25 17.5003C36.9403 17.5003 37.5 16.9406 37.5 16.2503V7.50031C37.5 7.00043 37.2021 6.54816 36.7426 6.35162Z" fill="url(#paint3_linear_6468_1202)"/>
<defs>
<linearGradient id="paint0_linear_6468_1202" x1="16.875" y1="12.75" x2="16.875" y2="39.75" gradientUnits="userSpaceOnUse">
<stop stop-color="#1D95D2"/>
<stop offset="1" stop-color="#47B43A"/>
</linearGradient>
<linearGradient id="paint1_linear_6468_1202" x1="10" y1="1.5" x2="10" y2="13.5" gradientUnits="userSpaceOnUse">
<stop stop-color="#1D95D2"/>
<stop offset="1" stop-color="#47B43A"/>
</linearGradient>
<linearGradient id="paint2_linear_6468_1202" x1="27.5" y1="10.6701" x2="27.5" y2="18.1209" gradientUnits="userSpaceOnUse">
<stop stop-color="#1D95D2"/>
<stop offset="1" stop-color="#47B43A"/>
</linearGradient>
<linearGradient id="paint3_linear_6468_1202" x1="27.5" y1="0.999969" x2="27.5" y2="19.0003" gradientUnits="userSpaceOnUse">
<stop stop-color="#1D95D2"/>
<stop offset="1" stop-color="#47B43A"/>
</linearGradient>
</defs>
</svg>
