<svg width="40" height="40" viewBox="0 0 40 40" fill="none" xmlns="http://www.w3.org/2000/svg">
<path fill-rule="evenodd" clip-rule="evenodd" d="M27.4657 2.03125C30.1384 4.37352 33.5177 5.75445 37.0659 5.95445C37.6498 13.6377 33.9609 20.0653 27.4657 24.2108C20.9706 20.0653 17.2817 13.6377 17.8655 5.95445C21.4137 5.75445 24.793 4.37352 27.4657 2.03125ZM12.7107 35.1582L14.644 34.021L23.7386 35.5245L36.1899 30.247C36.9347 29.6975 37.3648 28.5342 36.9858 27.3793C32.7327 28.6108 28.4796 29.8423 24.2265 31.0737L19.1425 29.8162C18.8081 29.7339 18.6038 29.3962 18.686 29.0618C18.7682 28.7274 19.106 28.523 19.4403 28.6052L24.204 29.7836L25.296 29.4674C25.7463 28.5282 25.6266 27.2778 24.4372 26.6427L14.9028 24.1424C14.9028 24.1424 12.6949 25.4971 8.59049 27.5046L12.7107 35.1582ZM6.78158 26.776L12.3203 37.0646L10.641 37.9688L2.87354 28.8798L6.78158 26.776ZM26.4942 14.3005L23.4904 11.2949L21.7222 13.0622L26.4519 17.7939L34.8573 9.78531L33.1328 7.97539L26.4942 14.3005Z" fill="url(#paint0_linear_6468_1229)"/>
<defs>
<linearGradient id="paint0_linear_6468_1229" x1="19.9999" y1="-1.5625" x2="19.9999" y2="41.5625" gradientUnits="userSpaceOnUse">
<stop stop-color="#1D95D2"/>
<stop offset="1" stop-color="#47B43A"/>
</linearGradient>
</defs>
</svg>
