<svg width="40" height="40" viewBox="0 0 40 40" fill="none" xmlns="http://www.w3.org/2000/svg">
<g clip-path="url(#clip0_6468_1165)">
<path d="M34.25 5.75C30.5 2.0625 25.5625 0 20.25 0C15.0625 0 10.125 1.9375 6.375 5.5L5.9375 5.9375L4.1875 4.1875L2.1875 11.6875L9.6875 9.6875L7.9375 7.9375L8.4375 7.5C11.6875 4.5 15.875 2.8125 20.3125 2.8125C24.875 2.8125 29.125 4.5625 32.3125 7.75C37 12.4375 38.5 19.1875 36.3125 25.5L39.4375 24.6875C41.125 17.75 39.1875 10.6875 34.25 5.75Z" fill="url(#paint0_linear_6468_1165)"/>
<path d="M32.1251 32.0625L31.6251 32.5C28.3751 35.5 24.1876 37.1875 19.8126 37.1875C15.2501 37.1875 11.0001 35.4375 7.81256 32.25C3.12506 27.5625 1.56256 20.8125 3.75006 14.5L0.625062 15.3125C-1.12494 22.1875 0.812561 29.25 5.75006 34.1875C9.43756 37.875 14.4376 39.9375 19.6876 39.9375H19.8126C24.9376 39.875 29.8126 37.9375 33.5626 34.375L34.0001 33.9375L35.7501 35.6875L37.7501 28.1875L30.2501 30.1875L32.1251 32.0625Z" fill="url(#paint1_linear_6468_1165)"/>
<path d="M29.8125 20C29.8125 14.625 25.4375 10.1875 20 10.1875C14.625 10.1875 10.1875 14.5625 10.1875 20C10.1875 25.4375 14.5625 29.8125 20 29.8125C25.375 29.8125 29.8125 25.375 29.8125 20ZM18 23.9375C17.8125 23.9375 17.6875 23.875 17.5625 23.75L14.875 21.0625C14.625 20.8125 14.625 20.4375 14.875 20.1875C15.125 19.9375 15.5 19.9375 15.75 20.1875L18 22.4375L24.25 16.1875C24.5 15.9375 24.875 15.9375 25.125 16.1875C25.375 16.4375 25.375 16.8125 25.125 17.0625L18.4375 23.75C18.3125 23.875 18.1875 23.9375 18 23.9375Z" fill="url(#paint2_linear_6468_1165)"/>
</g>
<defs>
<linearGradient id="paint0_linear_6468_1165" x1="21.1112" y1="-2.55" x2="21.1112" y2="28.05" gradientUnits="userSpaceOnUse">
<stop stop-color="#1D95D2"/>
<stop offset="1" stop-color="#47B43A"/>
</linearGradient>
<linearGradient id="paint1_linear_6468_1165" x1="18.8714" y1="11.9562" x2="18.8714" y2="42.4813" gradientUnits="userSpaceOnUse">
<stop stop-color="#1D95D2"/>
<stop offset="1" stop-color="#47B43A"/>
</linearGradient>
<linearGradient id="paint2_linear_6468_1165" x1="20" y1="8.225" x2="20" y2="31.775" gradientUnits="userSpaceOnUse">
<stop stop-color="#1D95D2"/>
<stop offset="1" stop-color="#47B43A"/>
</linearGradient>
<clipPath id="clip0_6468_1165">
<rect width="40" height="40" fill="white"/>
</clipPath>
</defs>
</svg>
