<svg width="40" height="40" viewBox="0 0 40 40" fill="none" xmlns="http://www.w3.org/2000/svg">
<g clip-path="url(#clip0_6468_1191)">
<path d="M32.8862 8.28125C32.8862 3.75852 29.2058 0 24.6831 0C22.9207 0 21.2739 0.754141 19.9956 2.11141C18.7172 0.754141 17.0704 0 15.3081 0C10.7854 0 7.10498 3.75852 7.10498 8.28125C7.10498 12.8303 10.4432 15.1786 14.309 17.8988C15.9032 19.0203 17.5523 20.1808 19.2277 21.6342L19.9944 22.3002L20.7623 21.6353C22.6563 19.9965 24.4576 18.7137 26.0461 17.5818C29.8672 14.8616 32.8862 12.7124 32.8862 8.28125ZM23.5112 11.7969H21.1675V14.1406H18.8237V11.7969H16.48V9.45312H18.8237V7.10938H21.1675V9.45312H23.5112V11.7969Z" fill="url(#paint0_linear_6468_1191)"/>
<path d="M38.5894 10.7188C36.1987 10.7188 35.5816 21.8281 35.5347 22.0626C35.2966 23.6904 34.1499 26.1001 32.2133 27.551L27.1375 31.2364L25.7322 29.3596L30.808 25.6753C32.8187 24.1678 33.7351 21.5937 31.2222 21.5937C28.9715 21.5937 24.7646 24.1995 23.5174 25.2331C22.0281 26.4675 21.1675 28.3016 21.1675 30.2359V40.0001H28.1987C28.1987 38.875 28.8081 37.6484 29.7455 36.4766C30.73 35.1875 32.1362 33.875 33.5893 32.5391C36.3549 29.9375 39.2221 27.2656 39.5972 24.547C39.8198 22.7207 40.0047 19.5885 39.9955 16.797C39.9854 13.6708 39.7205 10.8198 38.5894 10.7188Z" fill="url(#paint1_linear_6468_1191)"/>
<path d="M16.1988 25.0157C12.894 22.7422 10.3864 21.5937 8.76919 21.5937C6.25623 21.5937 7.17263 24.1678 9.18334 25.6753L14.2592 29.3596L12.8539 31.2364L7.77802 27.551C5.8413 26.1001 4.69459 23.6904 4.45654 22.0626C4.40959 21.8281 3.79248 10.7188 1.40177 10.7188C0.089273 10.8359 -0.0513521 14.6562 0.0190385 18.3125C0.0659916 20.9844 0.276851 23.5859 0.39396 24.547C0.769039 27.2656 3.63623 29.9376 6.40185 32.5391C7.85498 33.875 9.26115 35.1875 10.2456 36.4766C11.183 37.6484 11.7924 38.875 11.7924 40.0001H18.8236V30.2827C18.8238 28.2123 17.8519 26.2621 16.1988 25.0157Z" fill="url(#paint2_linear_6468_1191)"/>
</g>
<defs>
<linearGradient id="paint0_linear_6468_1191" x1="19.9956" y1="-2.23002" x2="19.9956" y2="24.5303" gradientUnits="userSpaceOnUse">
<stop stop-color="#1D95D2"/>
<stop offset="1" stop-color="#47B43A"/>
</linearGradient>
<linearGradient id="paint1_linear_6468_1191" x1="30.5817" y1="7.79062" x2="30.5817" y2="42.9282" gradientUnits="userSpaceOnUse">
<stop stop-color="#1D95D2"/>
<stop offset="1" stop-color="#47B43A"/>
</linearGradient>
<linearGradient id="paint2_linear_6468_1191" x1="9.41402" y1="7.79062" x2="9.41402" y2="42.9282" gradientUnits="userSpaceOnUse">
<stop stop-color="#1D95D2"/>
<stop offset="1" stop-color="#47B43A"/>
</linearGradient>
<clipPath id="clip0_6468_1191">
<rect width="40" height="40" fill="white"/>
</clipPath>
</defs>
</svg>
