<svg width="40" height="40" viewBox="0 0 40 40" fill="none" xmlns="http://www.w3.org/2000/svg">
<g clip-path="url(#clip0_6468_1214)">
<path d="M31.4062 33.2812C30.0974 33.2812 28.9747 34.0903 28.5101 35.2344H25.7812V37.5781H28.5101C28.9747 38.7222 30.0974 39.5312 31.4062 39.5312C33.1294 39.5312 34.5312 38.1294 34.5312 36.4062C34.5312 34.6831 33.1294 33.2812 31.4062 33.2812Z" fill="url(#paint0_linear_6468_1214)"/>
<path d="M36.875 26.6406C36.3613 26.6406 35.8767 26.7659 35.4487 26.9865L32.5471 24.5684C32.3365 24.393 32.071 24.2969 31.7969 24.2969H25.7812V26.6406H31.3726L33.9167 28.7608C33.8092 29.0763 33.75 29.4141 33.75 29.7656C33.75 31.4887 35.1519 32.8906 36.875 32.8906C38.5981 32.8906 40 31.4887 40 29.7656C40 28.0425 38.5981 26.6406 36.875 26.6406Z" fill="url(#paint1_linear_6468_1214)"/>
<path d="M36.875 16.875C35.5662 16.875 34.4434 17.6841 33.9788 18.8281H25.7812V21.1719H33.9788C34.4434 22.3159 35.5662 23.125 36.875 23.125C38.5981 23.125 40 21.7231 40 20C40 18.2769 38.5981 16.875 36.875 16.875Z" fill="url(#paint2_linear_6468_1214)"/>
<path d="M32.5471 15.4315L35.4487 13.0134C35.8767 13.2341 36.3613 13.3594 36.875 13.3594C38.5981 13.3594 40 11.9575 40 10.2344C40 8.51125 38.5981 7.10938 36.875 7.10938C35.1519 7.10938 33.75 8.51125 33.75 10.2344C33.75 10.5859 33.8092 10.9237 33.9167 11.2392L31.3726 13.3594H25.7812V15.7031H31.7969C32.071 15.7031 32.3365 15.607 32.5471 15.4315Z" fill="url(#paint3_linear_6468_1214)"/>
<path d="M31.4062 6.71875C33.1294 6.71875 34.5312 5.31687 34.5312 3.59375C34.5312 1.87063 33.1294 0.46875 31.4062 0.46875C30.0974 0.46875 28.9747 1.27781 28.5101 2.42188H25.7812V4.76562H28.5101C28.9747 5.90969 30.0974 6.71875 31.4062 6.71875Z" fill="url(#paint4_linear_6468_1214)"/>
<path d="M11.7188 20C11.7188 24.5232 15.3987 28.2031 19.9219 28.2031C21.1793 28.2031 22.3713 27.9184 23.4375 27.4105V12.5895C22.3713 12.0816 21.1793 11.7969 19.9219 11.7969C15.3987 11.7969 11.7188 15.4768 11.7188 20Z" fill="url(#paint5_linear_6468_1214)"/>
<path d="M22.2656 0.078125H17.5781C16.9309 0.078125 16.4062 0.602812 16.4062 1.25V2.77539C14.2073 3.22336 12.1029 4.09516 10.2284 5.33469L9.14953 4.25586C8.69187 3.7982 7.94992 3.7982 7.49227 4.25586L4.17773 7.57039C3.72008 8.02797 3.72008 8.77 4.17773 9.22766L5.25656 10.3066C4.01703 12.181 3.14523 14.2854 2.69727 16.4844H1.17188C0.524687 16.4844 0 17.0091 0 17.6562V22.3438C0 22.9909 0.524687 23.5156 1.17188 23.5156H2.69727C3.14523 25.7146 4.01703 27.819 5.25656 29.6935L4.17766 30.7724C3.95789 30.9922 3.83445 31.2902 3.83445 31.601C3.83445 31.9118 3.95789 32.2098 4.17766 32.4295L7.49227 35.7441C7.94992 36.2018 8.69187 36.2018 9.14953 35.7441L10.2284 34.6653C12.1029 35.9048 14.2073 36.7766 16.4062 37.2246V38.75C16.4062 39.3972 16.9309 39.9219 17.5781 39.9219H22.2656C22.9128 39.9219 23.4375 39.3972 23.4375 38.75V29.9436C22.3373 30.3338 21.1541 30.5469 19.9219 30.5469C14.1063 30.5469 9.375 25.8155 9.375 20C9.375 14.1845 14.1063 9.45312 19.9219 9.45312C21.1541 9.45312 22.3373 9.66625 23.4375 10.0564V1.25C23.4375 0.602812 22.9128 0.078125 22.2656 0.078125Z" fill="url(#paint6_linear_6468_1214)"/>
</g>
<defs>
<linearGradient id="paint0_linear_6468_1214" x1="30.1563" y1="32.6562" x2="30.1563" y2="40.1563" gradientUnits="userSpaceOnUse">
<stop stop-color="#1D95D2"/>
<stop offset="1" stop-color="#47B43A"/>
</linearGradient>
<linearGradient id="paint1_linear_6468_1214" x1="32.8906" y1="23.4375" x2="32.8906" y2="33.75" gradientUnits="userSpaceOnUse">
<stop stop-color="#1D95D2"/>
<stop offset="1" stop-color="#47B43A"/>
</linearGradient>
<linearGradient id="paint2_linear_6468_1214" x1="32.8906" y1="16.25" x2="32.8906" y2="23.75" gradientUnits="userSpaceOnUse">
<stop stop-color="#1D95D2"/>
<stop offset="1" stop-color="#47B43A"/>
</linearGradient>
<linearGradient id="paint3_linear_6468_1214" x1="32.8906" y1="6.25" x2="32.8906" y2="16.5625" gradientUnits="userSpaceOnUse">
<stop stop-color="#1D95D2"/>
<stop offset="1" stop-color="#47B43A"/>
</linearGradient>
<linearGradient id="paint4_linear_6468_1214" x1="30.1563" y1="-0.15625" x2="30.1563" y2="7.34375" gradientUnits="userSpaceOnUse">
<stop stop-color="#1D95D2"/>
<stop offset="1" stop-color="#47B43A"/>
</linearGradient>
<linearGradient id="paint5_linear_6468_1214" x1="17.5781" y1="10.1562" x2="17.5781" y2="29.8438" gradientUnits="userSpaceOnUse">
<stop stop-color="#1D95D2"/>
<stop offset="1" stop-color="#47B43A"/>
</linearGradient>
<linearGradient id="paint6_linear_6468_1214" x1="11.7188" y1="-3.90625" x2="11.7188" y2="43.9063" gradientUnits="userSpaceOnUse">
<stop stop-color="#1D95D2"/>
<stop offset="1" stop-color="#47B43A"/>
</linearGradient>
<clipPath id="clip0_6468_1214">
<rect width="40" height="40" fill="white"/>
</clipPath>
</defs>
</svg>
