<svg width="40" height="40" viewBox="0 0 40 40" fill="none" xmlns="http://www.w3.org/2000/svg">
<g clip-path="url(#clip0_6468_1237)">
<path d="M7.04478 24.4538L15.8006 15.6979L17.8921 17.7918C18.8782 18.7829 20.1907 19.3289 21.5875 19.3289C22.9843 19.3289 24.2968 18.7829 25.2834 17.7914C27.3121 15.7524 27.3121 12.4349 25.2834 10.3959L22.0041 7.10793L23.6331 5.67535C27.7307 2.08449 33.9635 2.49535 37.5544 6.59301C41.1452 10.6907 40.7344 16.9235 36.6367 20.5143L34.2963 22.6775L31.698 20.0792C30.1863 18.5675 27.7265 18.5675 26.2149 20.0792C25.4939 20.8 25.0927 21.755 25.0804 22.7725C24.1042 22.785 23.132 23.162 22.3888 23.9051C21.6453 24.6487 21.2683 25.6217 21.2563 26.5983C20.2795 26.6104 19.3066 26.9874 18.563 27.731C17.0513 29.2427 17.0513 31.7025 18.5629 33.2142L20.6439 35.2951L18.884 36.9217C17.6834 37.9739 15.857 37.8535 14.8049 36.6528C13.7527 35.4521 13.8731 33.6258 15.0738 32.5737C13.8731 33.6259 12.0468 33.5055 10.9947 32.3048C9.94252 31.1042 10.0629 29.2779 11.2636 28.2257L11.2635 28.2256C10.0628 29.2778 8.2365 29.1574 7.18431 27.9567C6.28267 26.9278 6.33486 25.6288 7.04478 24.4538Z" fill="url(#paint0_linear_6468_1237)"/>
<path d="M2.88942 5.25076C6.74208 1.39818 12.9883 1.39818 16.841 5.25076L23.6218 12.0495C24.4315 12.8634 24.6803 14.1162 24.2532 15.1801C23.7885 16.3376 22.5917 17.0787 21.348 16.9754C20.6622 16.9184 20.0161 16.6103 19.5344 16.1201L15.8015 12.3829L5.93567 22.2485L2.8895 19.2022C-0.963154 15.3497 -0.963154 9.10334 2.88942 5.25076Z" fill="url(#paint1_linear_6468_1237)"/>
<path d="M31.2142 27.2478L27.8715 23.905C27.5819 23.6154 27.4224 23.2304 27.4224 22.8207C27.4224 22.4111 27.5819 22.0261 27.8715 21.7364C28.1704 21.4375 28.5632 21.2881 28.9558 21.2881C29.3485 21.2881 29.7411 21.4375 30.0401 21.7365L33.3828 25.0792C33.9783 25.6747 33.9802 26.6421 33.3892 27.2407C33.3794 27.2503 33.3693 27.2594 33.3595 27.2689C33.0726 27.5445 32.6975 27.6969 32.2985 27.6969C31.8889 27.6969 31.5038 27.5374 31.2142 27.2478Z" fill="url(#paint2_linear_6468_1237)"/>
<path d="M27.3885 31.0737L24.0457 27.731C23.7561 27.4413 23.5967 27.0563 23.5967 26.6467C23.5967 26.2371 23.7562 25.8521 24.0457 25.5624C24.3354 25.2728 24.7204 25.1133 25.13 25.1133C25.5396 25.1133 25.9247 25.2728 26.2143 25.5624L29.5571 28.9052C29.8467 29.1948 30.0062 29.5798 30.0062 29.9895C30.0062 30.3968 29.8482 30.7796 29.5617 31.0687C29.5554 31.075 29.5488 31.0809 29.5425 31.087C28.9434 31.6708 27.9817 31.6669 27.3885 31.0737Z" fill="url(#paint3_linear_6468_1237)"/>
<path d="M23.5626 34.8999L20.2199 31.5573C19.6221 30.9594 19.622 29.9865 20.2199 29.3887C20.5096 29.0991 20.8946 28.9395 21.3042 28.9395C21.7138 28.9395 22.0989 29.099 22.3885 29.3886L25.7312 32.7313C26.0208 33.021 26.1803 33.406 26.1803 33.8156C26.1803 34.2241 26.0216 34.608 25.7335 34.8974C25.7303 34.9005 25.7271 34.9034 25.724 34.9064C25.1255 35.4973 24.1582 35.4955 23.5626 34.8999Z" fill="url(#paint4_linear_6468_1237)"/>
</g>
<defs>
<linearGradient id="paint0_linear_6468_1237" x1="23.255" y1="-0.211395" x2="23.255" y2="41.0793" gradientUnits="userSpaceOnUse">
<stop stop-color="#1D95D2"/>
<stop offset="1" stop-color="#47B43A"/>
</linearGradient>
<linearGradient id="paint1_linear_6468_1237" x1="12.2297" y1="0.372611" x2="12.2297" y2="24.2372" gradientUnits="userSpaceOnUse">
<stop stop-color="#1D95D2"/>
<stop offset="1" stop-color="#47B43A"/>
</linearGradient>
<linearGradient id="paint2_linear_6468_1237" x1="30.6266" y1="20.6472" x2="30.6266" y2="28.3378" gradientUnits="userSpaceOnUse">
<stop stop-color="#1D95D2"/>
<stop offset="1" stop-color="#47B43A"/>
</linearGradient>
<linearGradient id="paint3_linear_6468_1237" x1="26.8014" y1="24.4724" x2="26.8014" y2="32.1626" gradientUnits="userSpaceOnUse">
<stop stop-color="#1D95D2"/>
<stop offset="1" stop-color="#47B43A"/>
</linearGradient>
<linearGradient id="paint4_linear_6468_1237" x1="22.9759" y1="28.2986" x2="22.9759" y2="35.989" gradientUnits="userSpaceOnUse">
<stop stop-color="#1D95D2"/>
<stop offset="1" stop-color="#47B43A"/>
</linearGradient>
<clipPath id="clip0_6468_1237">
<rect width="40" height="40" fill="white"/>
</clipPath>
</defs>
</svg>
